<svg id="Layer_2" data-name="Layer 2" xmlns="http://www.w3.org/2000/svg" viewBox="0 0 1080 1080"><defs><style>.cls-1{fill:#020909;}</style></defs><title>text_web</title><path class="cls-1" d="M203.11,406.55l29.51-54.18c8.18-15,16.22-20.09,28.26-13.53,10.51,5.73,10.47,10.65,9.13,16.74l.26.14c5.49-7.67,11.57-8.32,20.81-3.29,13.48,7.34,11.94,16.84,6.07,27.61L264.5,440ZM237.7,401l18.15-33.32c1.89-3.48,1.73-6.21-1.75-8.1s-5.94-.6-7.83,2.88l-18.15,33.32ZM260,413.13l18.38-33.75c2.22-4.07,2.76-7.29-.8-9.23-4.15-2.27-6.56-.06-8.78,4l-18.38,33.75Z"/><path class="cls-1" d="M291,310.66c-12.93-15.87-7.07-26.87,7.9-39.07l26.64-21.71c15-12.2,26.93-15.72,39.86.15l13.18,16.17c12.93,15.87,7.07,26.87-7.9,39.07L344,327c-15,12.2-26.92,15.72-39.85-.15Zm26-2.9c6.41,7.86,10.49,9.51,18.35,3.1l21.26-17.32c7.86-6.4,7.07-10.74.66-18.6l-4.76-5.84c-5.49-6.73-10.49-9.51-19.24-2.37l-19.47,15.86c-8.75,7.13-7.05,12.59-1.56,19.33Z"/><path class="cls-1" d="M436.79,243.18l-50.5-32L411,203.47l31,20.3,14-34.28,24.71-7.68-23.46,55,7.22,23.24L444,266.42Z"/><path class="cls-1" d="M519.83,202.38C521.4,182,533.22,178,552.48,179.52l25.13,1.93c30.42,2.34,33.87,9.19,32.16,28.91l-21.38-1.64.15-1.93c.39-5-3.16-6.73-9.51-7.22l-23.31-1.79c-11.26-.87-13.79,4.27-14.45,12.93l-.58,7.51c-.78,10.11,1,14.12,11.16,14.9l22.81,1.76c9.63.74,12.59,0,13.26-8.67l21.37,1.64-.5,6.55c-.9,11.75-5.85,20.66-27.32,19L547,250.76c-19.25-1.48-30.34-7.17-28.77-27.58Z"/><path class="cls-1" d="M646.69,218.74c9.13-18.32,21.57-17.51,38.85-8.9l30.76,15.34c17.28,8.61,25.41,18.06,16.28,36.38l-9.3,18.67c-9.14,18.31-21.57,17.51-38.86,8.89l-30.76-15.33c-17.28-8.62-25.41-18.07-16.28-36.39Zm13.37,22.52c-4.53,9.08-4.35,13.48,4.73,18l24.54,12.23c9.07,4.52,12.69,2,17.22-7.06l3.36-6.74c3.87-7.78,4.34-13.48-5.77-18.52L681.68,228c-10.12-5-14.39-1.23-18.26,6.54Z"/><path class="cls-1" d="M776,265.62l55.47,60-12.76,11.8-20.46-22.12L759.7,351l-14.55-15.74,38.56-35.67-20.46-22.12Z"/><path class="cls-1" d="M851.23,355.42l33.52,74.49L868.9,437l-12.36-27.47-47.9,21.55-8.8-19.55L847.74,390l-12.36-27.47Z"/><path class="cls-1" d="M888.94,627.81l-7.85,26.78-77.9,17.21,6.71-22.89L823.63,646l12.23-41.7-10.09-9.5,6.74-23Zm-40.88-11.58-7.72,26.31,29.12-5.95Z"/><path class="cls-1" d="M851.44,724.29l-35.2,46.62c-12.28,16.26-23.42,14-34.36,5.76l-4.78-3.61c-8.32-6.29-15.14-17.12-6-29.22l25.66-34-14-10.59,12.92-17.11Zm-40.81-4-20.08,26.59c-3,4-1.57,7.52,1.75,10l2.16,1.62c3.77,2.86,7.33,2.64,11.22-2.53l19-25.12Z"/><path class="cls-1" d="M749.61,832.47,726.3,847.82l-70.55-37.24,19.92-13.12L688,804.12l36.28-23.91-1.55-13.77,20-13.17ZM725.92,797.2,703,812.29l26.06,14.28Z"/><path class="cls-1" d="M658.43,882.23,595.22,896c-16.13,3.53-22.22-3.54-24.9-15.8l-1-4.34c-2-9.15-1.09-15,8-19.35l0-.19c-6.47.23-12.26-1.37-14.71-12.6l-2.54-11.6,20.95-4.58,1.79,8.21c1.57,7.17,4.16,9.07,10.66,7.65l32.93-7.19-3.88-17.74,20.94-4.57Zm-28.28-29-34.62,7.56c-5.66,1.24-7.24,4-6.17,8.86l.49,2.27c1.32,6,4.59,6.51,11.19,5.06l32.74-7.15Z"/><path class="cls-1" d="M536.74,901.9l-81.08-10,2.13-17.25,29.9,3.7,6.44-52.13,21.28,2.63L509,881l29.9,3.69Z"/><path class="cls-1" d="M419,881.51,399.79,872l11.1-22.3-40.46-20.14-11.1,22.31-19.19-9.55,31.15-62.6,19.19,9.56-11.79,23.68,40.46,20.14,11.79-23.69,19.19,9.55Z"/><path class="cls-1" d="M305.55,815.36,252.9,759.9l11.76-11.17,37.9,39.92,8.12-7.72-35.9-37.81,10.5-10L321.19,771l8.12-7.71-38.76-40.83,12.19-11.57,53.51,56.38Z"/><path class="cls-1" d="M232.71,727.07,222.1,708.44l60.76-34.58,10.6,18.62Z"/><path class="cls-1" d="M202.41,672.14l-15.85-62.73c-5.25-20.78-.25-29.81,16.5-34l20.6-5.2c16.76-4.24,25.44,1.34,30.69,22.12L270.19,655Zm45.12-33.51-9.32-36.88c-2.25-8.9-5.65-11.72-15.29-9.29l-9.18,2.32c-9.64,2.44-11.29,6.54-9.05,15.43L214,647.1Z"/></svg>